<?xml version="1.0" encoding="UTF-8" standalone="no"?>
<!-- Created with Inkscape (http://www.inkscape.org/) -->

<svg
   xmlns:dc="http://purl.org/dc/elements/1.1/"
   xmlns:cc="http://creativecommons.org/ns#"
   xmlns:rdf="http://www.w3.org/1999/02/22-rdf-syntax-ns#"
   xmlns:svg="http://www.w3.org/2000/svg"
   xmlns="http://www.w3.org/2000/svg"
   xmlns:sodipodi="http://sodipodi.sourceforge.net/DTD/sodipodi-0.dtd"
   xmlns:inkscape="http://www.inkscape.org/namespaces/inkscape"
   width="136mm"
   height="136mm"
   viewBox="0 0 136 136"
   version="1.1"
   id="svg8"
   inkscape:version="0.92.4 (5da689c313, 2019-01-14)"
   sodipodi:docname="favicon.svg">
  <defs
     id="defs2" />
  <sodipodi:namedview
     id="base"
     pagecolor="#ffffff"
     bordercolor="#666666"
     borderopacity="1.0"
     inkscape:pageopacity="0.0"
     inkscape:pageshadow="2"
     inkscape:zoom="0.35"
     inkscape:cx="400"
     inkscape:cy="560"
     inkscape:document-units="mm"
     inkscape:current-layer="layer1"
     showgrid="false"
     inkscape:window-width="1600"
     inkscape:window-height="837"
     inkscape:window-x="-8"
     inkscape:window-y="-8"
     inkscape:window-maximized="1" />
  <metadata
     id="metadata5">
    <rdf:RDF>
      <cc:Work
         rdf:about="">
        <dc:format>image/svg+xml</dc:format>
        <dc:type
           rdf:resource="http://purl.org/dc/dcmitype/StillImage" />
        <dc:title></dc:title>
      </cc:Work>
    </rdf:RDF>
  </metadata>
  <g
     inkscape:label="Calque 1"
     inkscape:groupmode="layer"
     id="layer1"
     transform="translate(0,-161)">
    <path
       style="fill:#9c27b0;fill-opacity:1;stroke-width:0.63650781"
       d="m 1.7392568,295.19522 c 0.1099807,-0.36897 3.0344951,-6.46177 6.4989139,-13.53956 l 6.2989513,-12.86871 26.395606,0.1963 26.395597,0.19631 -0.202344,-7.08606 c -0.111298,-3.89734 -0.391364,-7.31018 -0.62238,-7.58411 -0.231008,-0.27392 -10.279997,-0.57783 -22.33109,-0.67535 l -21.911063,-0.1773 17.873108,-36.13119 c 9.830204,-19.87214 19.835271,-40.30379 22.233483,-45.40365 2.398211,-5.09986 4.495367,-9.27033 4.660334,-9.26771 0.164975,0.003 7.36816,13.74831 16.007061,30.54597 l 15.707109,30.54121 -16.307007,0.33768 -16.307015,0.33767 -0.340544,7.09117 c -0.187298,3.90014 -0.238856,7.3191 -0.114567,7.59768 0.124289,0.27858 9.457674,0.50651 20.740841,0.50651 H 106.9291 l 14.24395,27.66004 c 7.83416,15.21303 14.24394,27.82516 14.24394,28.027 0,0.20182 -30.12248,0.36695 -66.938855,0.36695 -44.060903,0 -66.8705075,-0.22928 -66.7388782,-0.67085 z"
       id="path4665"
       inkscape:connector-curvature="0" />
  </g>
</svg>
